<svg xmlns="http://www.w3.org/2000/svg" width="1000" height="1000" fill="none" viewBox="0 0 30 30"><path fill="#3B5EDA" d="M24.2 13.5h-5.5l-.3.2-3.3 5.4H15l-3.3-5.4-.3-.2H5.8c-.1 0-.1.1 0 .2l6.4 9.6.1.4v5.7l.2.2h5l.2-.2v-5.7l.1-.4 6.5-9.6zm-9.6-8.2.4.1.3-.1c3.2-2 .6-4.4-.3-5.3-.9 1-3.5 3.3-.4 5.3m-3.2 7.1h.4l.2-.4c1.6-3.6-2.2-4.2-3.5-4.5-.3 1.3-1.1 5 2.9 5m-5.1-.9.3-.2V11c-.2-4-4-2.8-5.2-2.4.4 1.3 1.4 5 4.9 3m.6 6.6.1-.4s0-.2-.2-.3c-2.6-3-4.8 0-5.7 1.2 1.1.7 4.1 3.1 5.8-.5m8-12c-.6.8-2.6 2.9-.2 4.5l.3.1.3-.1c2.4-1.6.4-3.7-.3-4.4"/><path fill="#3B5EDA" d="M8.3 19.9h-.2c-2.5 0-2 2.3-2 3 .9-.1 3.2-.5 2.3-2.8zm6.4-4 .3.2.3-.2c2.4-1.6.4-3.6-.3-4.4-.7.8-2.7 2.8-.3 4.5M4.5 14.7l.1-.2v-.3C3 11.6.7 13.4 0 14c.7.7 2.6 2.9 4.5.6m2.5-7h.3l.1-.3c1-2.7-1.8-3.2-2.8-3.5C4.5 5 4 7.8 7 7.7m4-.8h.3l.2-.2c2-2.7-1-4-2-4.6-.5 1-1.8 4 1.5 4.8m7.2 5.4.4.1c4 .1 3.2-3.6 3-5-1.4.4-5.2 1-3.6 4.6 0 .2.2.3.2.3m5.2-1.3v.4l.3.2c3.5 2 4.5-1.7 5-3-1.4-.4-5-1.6-5.3 2.4m-.2 6.5-.2.3v.4c1.7 3.6 4.8 1.2 5.9.4-.9-1-3.1-4.1-5.7-1.1m-1.3 2.4h-.2l-.1.2c-.9 2.3 1.4 2.7 2.3 2.9 0-.8.5-3.2-2-3.1m3.6-5.7-.1.3.1.2c2 2.3 3.8 0 4.5-.6-.8-.7-3-2.5-4.5 0m-2.8-6.4h.3c3 0 2.5-2.7 2.4-3.8-1 .3-3.9.8-2.8 3.5zm-4-.8h.3c3.3-.8 2-3.7 1.5-4.8-1 .5-4 1.9-2 4.6z"/></svg>
